Coordinates
version=1
nRows=13
nColumns=40
inDegrees=yes

Units are S.I. units (second, meters, Newtons, ...)
Angles are in degrees.

endheader
time	pelvis_tilt	pelvis_list	pelvis_rotation	pelvis_tx	pelvis_ty	pelvis_tz	hip_flexion_r	hip_adduction_r	hip_rotation_r	knee_angle_r	knee_angle_r_beta	ankle_angle_r	subtalar_angle_r	mtp_angle_r	hip_flexion_l	hip_adduction_l	hip_rotation_l	knee_angle_l	knee_angle_l_beta	ankle_angle_l	subtalar_angle_l	mtp_angle_l	lumbar_extension	lumbar_bending	lumbar_rotation	arm_flex_r	arm_add_r	arm_rot_r	elbow_flex_r	pro_sup_r	wrist_flex_r	wrist_dev_r	arm_flex_l	arm_add_l	arm_rot_l	elbow_flex_l	pro_sup_l	wrist_flex_l	wrist_dev_l
     11.44000000	     -1.74142716	     -1.60877395	     -0.50683310	      0.71276588	      0.93132628	      0.41765220	     29.52306084	     -6.95010984	     -6.13956232	     69.70709784	     69.70709784	      0.21452021	    -19.00414847	     10.80471944	     12.35929059	     -1.45335443	     -3.74271249	     21.80695714	     21.80695714	     13.52181399	    -11.75667281	     -1.26157712	     -9.83634594	      3.39670144	      0.44220960	    -10.89616825	    -14.20455782	     -7.47845842	     28.40433416	     46.02573734	      0.00000000	      0.00000000	     -1.21998239	    -14.51272494	      0.23398085	     48.77174675	     46.23757686	      0.00000000	      0.00000000
     11.45371429	     -1.86438943	     -1.60812646	     -0.86974624	      0.71170046	      0.93149217	      0.41757089	     30.41988462	     -6.64591520	     -5.93167035	     67.88445112	     67.88445112	      0.97468921	    -18.81603615	     10.69957738	     11.94539802	     -1.46188750	     -4.01471044	     21.69592872	     21.69592872	     13.77118171	    -11.79657270	     -1.32859147	     -9.71610162	      3.36825643	      0.17515453	    -10.85594694	    -14.10420614	     -7.46861611	     28.43204615	     46.02459881	      0.00000000	      0.00000000	     -0.68358772	    -14.63840462	      0.20410013	     49.04755283	     46.24762141	      0.00000000	      0.00000000
     11.46742857	     -1.79350893	     -2.00843595	     -1.30457230	      0.71082165	      0.93237052	      0.41789180	     30.78347834	     -5.82626137	     -5.90141286	     65.50040994	     65.50040994	      1.21190235	    -18.89426148	      9.84328009	     10.93607268	     -1.98916090	     -4.70959418	     20.90147583	     20.90147583	     13.97600998	    -10.99360988	     -1.65221397	     -9.99334816	      3.82253414	      0.21444301	    -10.57641363	    -13.89256079	     -7.68503609	     27.92307145	     46.07750900	      0.00000000	      0.00000000	     -0.72963103	    -15.00316512	      0.44076116	     51.33598264	     46.26347855	      0.00000000	      0.00000000
     11.48114286	     -1.87658689	     -2.22040381	     -1.67028951	      0.70978773	      0.93274122	      0.41799606	     31.27781146	     -5.24535692	     -5.82502417	     63.03476082	     63.03476082	      1.74023720	    -18.79029344	      9.77918403	     10.30656780	     -2.20600706	     -4.95066234	     20.45496650	     20.45496650	     14.16367617	    -10.96933061	     -1.58719796	     -9.99999634	      4.07802100	      0.09700958	    -10.46191820	    -13.77858941	     -7.69661904	     27.93130995	     46.08086842	      0.00000000	      0.00000000	     -0.21625809	    -15.12832959	      0.43240525	     51.88011319	     46.27685261	      0.00000000	      0.00000000
     11.49485714	     -1.96837414	     -2.40729401	     -2.02645611	      0.70873989	      0.93297644	      0.41814824	     31.66037139	     -4.70145602	     -5.76436972	     60.32444991	     60.32444991	      2.24857647	    -18.62489461	      9.69663169	      9.72431048	     -2.40578695	     -5.22798664	     20.06523798	     20.06523798	     14.36679464	    -10.89314941	     -1.55850949	    -10.01311696	      4.29257909	      0.03274110	    -10.30302513	    -13.63957069	     -7.70467954	     27.97849968	     46.08226808	      0.00000000	      0.00000000	      0.31776769	    -15.27681774	      0.43637576	     52.56268150	     46.29042942	      0.00000000	      0.00000000
     11.50857143	     -1.99520775	     -2.60655779	     -2.37635785	      0.70773032	      0.93322649	      0.41840165	     31.81171551	     -4.15708362	     -5.75277862	     57.30318394	     57.30318394	      2.68661391	    -18.40792746	      9.47960314	      9.07623810	     -2.62515185	     -5.53855348	     19.68939815	     19.68939815	     14.61015669	    -10.74006752	     -1.55579848	    -10.13196200	      4.53157240	      0.00348119	    -10.11259830	    -13.53496497	     -7.73716267	     28.04692716	     46.08533052	      0.00000000	      0.00000000	      0.79873563	    -15.41530594	      0.50388425	     53.52659510	     46.30211375	      0.00000000	      0.00000000
     11.52228571	     -1.97279223	     -2.74010681	     -2.74133385	      0.70679455	      0.93336880	      0.41878630	     31.74248594	     -3.70493865	     -5.75181355	     53.93526689	     53.93526689	      2.69242164	    -18.13863380	      7.75092027	      8.38353899	     -2.81949108	     -6.09792672	     19.34381236	     19.34381236	     14.95177472	    -10.19672247	     -1.61268539	    -10.36078389	      4.64161282	     -0.04031848	     -9.76309854	    -13.34648600	     -7.94356855	     28.20505736	     46.10328812	      0.00000000	      0.00000000	      0.79174814	    -15.90808982	      0.93994519	     56.06669073	     46.30858722	      0.00000000	      0.00000000
     11.53600000	     -2.22114354	     -2.95171526	     -3.00278204	      0.70568574	      0.93301007	      0.41913290	     31.88309744	     -3.23213157	     -5.92931202	     50.40678959	     50.40678959	      3.26136461	    -17.45917043	      7.56012011	      8.12434684	     -3.05099343	     -6.19710682	     19.18484103	     19.18484103	     15.16128210	    -10.25421540	     -1.61719198	    -10.20365686	      4.92881739	     -0.16543190	     -9.34003185	    -13.22792326	     -7.95079537	     28.42383345	     46.09929740	      0.00000000	      0.00000000	      1.34741610	    -16.00930575	      1.00020460	     56.62937966	     46.31709540	      0.00000000	      0.00000000
     11.54971429	     -2.31828179	     -3.08370409	     -3.28328268	      0.70468727	      0.93273735	      0.41961733	     31.53045472	     -2.88476687	     -6.21555617	     46.17768107	     46.17768107	      2.08127606	    -17.09692049	      2.50202258	      7.74172528	     -3.23366450	     -6.51710471	     19.14837617	     19.14837617	     15.57802659	    -10.04645313	     -1.49296971	    -10.30850695	      5.07002120	     -0.45769429	     -8.76193149	    -13.10410068	     -8.25281808	     28.84473459	     46.12144842	      0.00000000	      0.00000000	      1.28163212	    -16.63257507	      1.73033792	     58.95497470	     46.33855650	      0.00000000	      0.00000000
     11.56342857	     -2.41681049	     -3.18642013	     -3.57971931	      0.70374280	      0.93247956	      0.42015993	     31.22361266	     -2.53853286	     -6.46758000	     42.10848350	     42.10848350	      2.59613512	    -15.68390837	      2.40375323	      7.24930148	     -3.35385109	     -6.79857487	     18.88884837	     18.88884837	     15.76386276	     -9.98839949	     -1.51938776	    -10.39599944	      5.26752309	     -0.31144239	     -8.30402369	    -12.96197010	     -8.21636630	     29.08821383	     46.11352904	      0.00000000	      0.00000000	      2.09602679	    -16.58715632	      1.73182148	     59.58307904	     46.35868496	      0.00000000	      0.00000000
     11.57714286	     -2.53782323	     -3.25325776	     -3.87564642	      0.70292415	      0.93199003	      0.42091804	     30.80734510	     -2.28343986	     -6.90595626	     37.88357583	     37.88357583	      2.93544801	    -13.67555385	      1.38893727	      6.76601986	     -3.46546529	     -7.13565697	     18.62959681	     18.62959681	     16.06185500	     -9.72845657	     -1.65041665	    -10.46831473	      5.31746776	     -0.20044366	     -7.81179457	    -12.78456999	     -8.22406630	     29.60545233	     46.09813926	      0.00000000	      0.00000000	      2.73355999	    -16.71362592	      1.94946829	     60.72417320	     46.37619611	      0.00000000	      0.00000000
     11.59085714	     -2.72395404	     -3.28667758	     -4.11790142	      0.70222663	      0.93132067	      0.42171137	     30.29986954	     -2.07196090	     -7.51942743	     33.48244207	     33.48244207	      2.98870700	    -11.33919721	      0.09024897	      6.38047778	     -3.54365937	     -7.43900776	     18.41734053	     18.41734053	     16.31925840	     -9.51093188	     -1.81312309	    -10.43558286	      5.39588554	     -0.18994582	     -7.33619122	    -12.66593573	     -8.24873061	     30.35678777	     46.07428987	      0.00000000	      0.00000000	      3.20230729	    -16.91294493	      2.35977499	     62.04563298	     46.39352938	      0.00000000	      0.00000000
     11.60457143	     -2.94725467	     -3.34259442	     -4.33425025	      0.70164875	      0.93054849	      0.42269117	     29.75242289	     -1.70114284	     -7.89223496	     29.13459962	     29.13459962	      3.21559031	     -9.14989755	      0.39259742	      6.04621474	     -3.64143284	     -7.62169330	     18.24090188	     18.24090188	     16.54713392	     -9.51977366	     -1.93072945	    -10.31476635	      5.54778090	     -0.13990941	     -6.70769447	    -12.50388979	     -8.21321102	     30.75827598	     46.06016514	      0.00000000	      0.00000000	      3.90632157	    -16.90299421	      2.45454638	     62.66748050	     46.40659582	      0.00000000	      0.00000000
